<svg width="689" height="156" viewBox="0 0 689 156" fill="none" xmlns="http://www.w3.org/2000/svg">
<path d="M513.391 54.5605C513.391 64.3587 511.659 72.9492 508.195 80.332C504.732 87.7148 499.764 93.4115 493.293 97.4219C486.867 101.432 479.484 103.438 471.145 103.438C462.896 103.438 455.536 101.455 449.064 97.4902C442.593 93.5254 437.58 87.8743 434.025 80.5371C430.471 73.1543 428.671 64.6777 428.625 55.1074V50.1855C428.625 40.3874 430.38 31.7741 433.889 24.3457C437.443 16.8717 442.434 11.1523 448.859 7.1875C455.331 3.17708 462.714 1.17188 471.008 1.17188C479.302 1.17188 486.662 3.17708 493.088 7.1875C499.559 11.1523 504.549 16.8717 508.059 24.3457C511.613 31.7741 513.391 40.3646 513.391 50.1172V54.5605ZM492.609 50.0488C492.609 39.6126 490.741 31.6829 487.004 26.2598C483.267 20.8366 477.935 18.125 471.008 18.125C464.126 18.125 458.817 20.8138 455.08 26.1914C451.343 31.5234 449.452 39.362 449.406 49.707V54.5605C449.406 64.7233 451.275 72.6074 455.012 78.2129C458.749 83.8184 464.126 86.6211 471.145 86.6211C478.026 86.6211 483.312 83.9323 487.004 78.5547C490.695 73.1315 492.564 65.2474 492.609 54.9023V50.0488ZM563.566 77.3926L586.125 2.53906H608.957L574.299 102.07H552.902L518.381 2.53906H541.145L563.566 77.3926ZM678.273 58.9355H638.898V85.5957H685.109V102.07H618.391V2.53906H684.973V19.1504H638.898V42.8711H678.273V58.9355Z" fill="white"/>
<path d="M284 0.61377L317.965 49.918V106.07H284V0.61377Z" fill="url(#paint0_linear_640_11014)"/>
<path d="M410 36.2222L376.035 85.5264V106.07H410V36.2222Z" fill="url(#paint1_linear_640_11014)"/>
<path fill-rule="evenodd" clip-rule="evenodd" d="M337.735 80.0485H356.264L410 0.61377H370.807L347 35.5376L323.443 0.61377H284L337.735 80.0485Z" fill="url(#paint2_linear_640_11014)"/>
<path d="M58.6721 45.9164C59.4856 46.1031 60.2991 46.2526 61.1003 46.4767C62.6164 46.9 64.1448 47.3109 65.624 47.8215C68.4097 48.7802 70.9858 50.1748 73.3647 51.9429C76.7667 54.483 79.4661 57.6208 81.2904 61.5057C82.486 64.0334 83.2379 66.698 83.6324 69.4498C84.0761 72.5627 84.1624 75.6881 83.6447 78.8134C82.9791 82.8104 81.4753 86.4711 79.1087 89.7583C76.4216 93.4814 72.9826 96.3701 69.0999 98.7235C66.4991 100.292 63.7751 101.612 60.9277 102.671C58.216 103.679 55.4673 104.526 52.6446 105.198C49.9945 105.821 47.3198 106.082 44.5957 106.07C30.0509 106.033 15.5062 106.057 0.961424 106.045C0.665599 106.045 0.357456 106.02 0.0616303 106.008C0.0369782 105.958 0.0246521 105.908 0 105.858C0.320478 105.622 0.628623 105.373 0.949101 105.136C2.90895 103.667 4.83181 102.16 6.42188 100.255C7.5189 98.9476 8.11054 97.5157 8.11054 95.7351C8.07356 67.0591 8.07356 38.3832 8.11054 9.69476C8.11054 8.16321 7.62983 6.96786 6.59445 5.90948C4.89345 4.16626 2.88429 2.85884 0.776533 1.6884C0.530012 1.55143 0.295826 1.41446 0.0616303 1.14053C0.34513 1.11562 0.640955 1.07827 0.924455 1.07827C7.74077 1.07827 14.5694 1.07827 21.3857 1.07827C30.1619 1.07827 38.9257 1.04091 47.7019 1.12808C49.3782 1.14053 51.0792 1.53898 52.7309 1.90007C54.247 2.22382 55.7385 2.70943 57.2176 3.19504C59.3623 3.90478 61.3961 4.8511 63.3436 6.02154C66.2156 7.75231 68.7301 9.86908 70.616 12.6831C72.0582 14.8373 72.995 17.2031 73.4757 19.7556C73.8948 21.9969 73.8578 24.2631 73.6852 26.5168C73.5003 28.7332 72.958 30.8749 72.1321 32.9418C70.8132 36.2539 68.7425 39.0182 66.08 41.3342C64.1448 43.0151 61.9878 44.3724 59.6212 45.3436C59.3007 45.4681 58.9925 45.6175 58.6844 45.767C58.6597 45.8043 58.6721 45.8541 58.6721 45.9164ZM25.1452 73.4841C25.1452 80.1084 25.1452 86.7202 25.1452 93.3444C25.1452 94.1288 25.1452 94.1413 25.9217 94.1413C33.0462 94.1413 40.183 94.1413 47.3074 94.1413C47.7512 94.1413 48.2319 94.1537 48.651 94.0168C50.241 93.5436 51.8558 93.1203 53.3719 92.4728C56.0959 91.3148 58.6228 89.7957 60.8908 87.8532C65.057 84.2921 67.6085 79.8842 68.0275 74.3308C68.2741 71.0436 67.7687 67.8934 66.2772 64.9299C64.7365 61.8668 62.4685 59.4637 59.6828 57.5337C57.4395 55.9897 55.0112 54.8068 52.4474 53.9103C50.0562 53.076 47.6156 52.7398 45.0764 52.7647C38.7285 52.827 32.3806 52.7896 26.0326 52.7896C25.1575 52.7896 25.1575 52.7896 25.1575 53.6861C25.1452 60.2979 25.1452 66.8973 25.1452 73.4841ZM25.1452 27.7744C25.1452 33.0041 25.1575 38.2338 25.1328 43.4634C25.1328 43.9739 25.2808 44.1358 25.7984 44.1358C32.0231 44.1233 38.2478 44.1233 44.4724 44.1233C44.8422 44.1233 45.2243 44.1233 45.5695 44.0237C47.2581 43.5381 48.8112 42.7537 50.2534 41.7575C52.2009 40.4128 53.8896 38.7941 55.2331 36.8267C56.4534 35.0337 57.3039 33.0663 57.6983 30.9247C58.1544 28.4717 58.0065 26.0188 57.5011 23.5783C56.6876 19.7183 54.7647 16.568 51.5969 14.2271C49.1317 12.4092 46.4446 11.3882 43.3261 11.4255C37.5329 11.5127 31.7396 11.4504 25.9464 11.4504C25.1698 11.4504 25.1698 11.4504 25.1698 12.2224C25.1452 17.4023 25.1452 22.5821 25.1452 27.7744Z" fill="white"/>
<path d="M176.184 78.5605C176.209 78.2006 176.258 77.8408 176.258 77.4686C176.258 54.8482 176.258 32.2153 176.271 9.59495C176.271 8.25485 175.825 7.15051 174.922 6.18266C173.115 4.24696 170.962 2.78278 168.734 1.40545C168.672 1.36823 168.61 1.3186 168.524 1.26896C169.093 1.00839 196.505 1.00839 197 1.24415C195.713 1.9142 194.414 2.54702 193.151 3.2543C191.654 4.08565 190.255 5.0535 189.067 6.31915C188.288 7.15051 187.867 8.06873 187.867 9.25993C187.879 42.8493 187.879 76.4262 187.879 110.016C187.879 110.313 187.854 110.624 187.83 111.07C187.199 110.686 186.666 110.4 186.171 110.065C182.694 107.732 179.439 105.114 176.357 102.285C172.273 98.5379 168.598 94.4183 165.145 90.1002C161.668 85.7573 158.19 81.4144 154.75 77.0467C151.977 73.5351 149.242 69.9987 146.495 66.4624C143.76 62.926 141.037 59.3772 138.315 55.8284C133.884 50.0337 129.454 44.239 125.036 38.4319C121.929 34.3496 118.835 30.2548 115.729 26.1725C115.605 26.0112 115.469 25.8747 115.222 25.6017C115.197 25.9615 115.16 26.1725 115.16 26.3834C115.16 49.6491 115.16 72.9147 115.148 96.1803C115.148 97.5452 115.779 98.6248 116.558 99.6546C118.167 101.776 120.222 103.439 122.301 105.065C122.486 105.214 122.647 105.375 122.771 105.66C113.576 105.66 104.368 105.66 95 105.66C95.297 105.387 95.4703 105.214 95.6683 105.052C97.6979 103.427 99.6532 101.727 101.25 99.6422C102.203 98.4014 102.648 97.0365 102.648 95.4482C102.636 66.9339 102.623 38.4071 102.661 9.89275C102.661 8.16799 102.079 6.81549 100.891 5.6367C99.2325 3.98639 97.339 2.63388 95.3465 1.43027C95.2846 1.39305 95.2228 1.34341 95.0248 1.20692C95.396 1.15729 95.6312 1.10765 95.8539 1.10765C103.75 1.10765 111.658 1.10765 119.553 1.09524C119.999 1.09524 120.271 1.23174 120.519 1.60399C123.489 6.0834 126.471 10.5628 129.466 15.0174C132.387 19.3603 135.307 23.7032 138.29 27.9965C141.582 32.7365 144.886 37.4641 148.302 42.1048C152.138 47.3163 156.123 52.4161 160.046 57.5656C163.784 62.4917 167.509 67.4178 171.246 72.3439C172.719 74.2796 174.167 76.2277 175.64 78.1758C175.763 78.3371 175.887 78.4736 176.023 78.6225C176.06 78.5977 176.122 78.5729 176.184 78.5605Z" fill="white"/>
<path d="M214.086 2.07031C224.383 2.07031 234.667 2.07031 244.963 2.07031C244.975 2.09503 244.988 2.13211 245 2.15682C244.089 2.68825 243.165 3.1826 242.29 3.73875C240.578 4.82632 238.867 5.93861 237.66 7.63177C237.167 8.3115 236.847 9.06538 236.847 9.96758C236.859 38.8624 236.859 67.7573 236.847 96.6521C236.847 98.0116 237.499 99.0744 238.288 100.075C239.396 101.484 240.726 102.671 242.155 103.746C242.968 104.364 243.805 104.957 244.631 105.563C244.741 105.637 244.84 105.736 244.951 105.835C244.557 106.094 214.85 106.168 214.037 105.909C214.16 105.773 214.246 105.649 214.345 105.563C215.823 104.29 217.35 103.091 218.754 101.744C219.85 100.706 220.848 99.544 221.316 98.0486C221.451 97.6037 221.538 97.1217 221.538 96.6645C221.562 93.4265 221.55 90.2008 221.55 86.9628C221.55 61.4914 221.538 36.0075 221.574 10.5361C221.574 8.91708 221.008 7.66884 219.936 6.56891C218.372 4.94991 216.5 3.72639 214.591 2.56466C214.394 2.44108 214.197 2.29277 214 2.15682C214.049 2.14446 214.062 2.10739 214.086 2.07031Z" fill="white"/>
<path d="M8.44141 140V118.672H15.9121C18.5 118.672 20.4629 119.17 21.8008 120.166C23.1387 121.152 23.8076 122.603 23.8076 124.517C23.8076 125.562 23.5391 126.484 23.002 127.285C22.4648 128.076 21.7178 128.657 20.7607 129.028C21.8545 129.302 22.7139 129.854 23.3389 130.684C23.9736 131.514 24.291 132.529 24.291 133.73C24.291 135.781 23.6367 137.334 22.3281 138.389C21.0195 139.443 19.1543 139.98 16.7324 140H8.44141ZM12.8359 130.713V136.47H16.6006C17.6357 136.47 18.4414 136.226 19.0176 135.737C19.6035 135.239 19.8965 134.556 19.8965 133.687C19.8965 131.733 18.8857 130.742 16.8643 130.713H12.8359ZM12.8359 127.607H16.0879C18.3047 127.568 19.4131 126.685 19.4131 124.956C19.4131 123.989 19.1299 123.296 18.5635 122.876C18.0068 122.446 17.123 122.231 15.9121 122.231H12.8359V127.607ZM44.9453 140H40.5508L31.9961 125.967V140H27.6016V118.672H31.9961L40.5654 132.734V118.672H44.9453V140ZM53.4561 140H49.0615V118.672H53.4561V140ZM70.7559 118.672L76.2344 134.141L81.6836 118.672H87.4551V140H83.0459V134.17L83.4854 124.106L77.7285 140H74.7109L68.9688 124.121L69.4082 134.17V140H65.0137V118.672H70.7559ZM90.3555 131.929C90.3555 130.356 90.6582 128.955 91.2637 127.725C91.8691 126.494 92.7383 125.542 93.8711 124.868C95.0137 124.194 96.3369 123.857 97.8408 123.857C99.9795 123.857 101.723 124.512 103.07 125.82C104.428 127.129 105.185 128.906 105.341 131.152L105.37 132.236C105.37 134.668 104.691 136.621 103.334 138.096C101.977 139.561 100.155 140.293 97.8701 140.293C95.585 140.293 93.7588 139.561 92.3916 138.096C91.0342 136.631 90.3555 134.639 90.3555 132.119V131.929ZM94.5889 132.236C94.5889 133.74 94.8721 134.893 95.4385 135.693C96.0049 136.484 96.8154 136.88 97.8701 136.88C98.8955 136.88 99.6963 136.489 100.272 135.708C100.849 134.917 101.137 133.657 101.137 131.929C101.137 130.454 100.849 129.312 100.272 128.501C99.6963 127.69 98.8857 127.285 97.8408 127.285C96.8057 127.285 96.0049 127.69 95.4385 128.501C94.8721 129.302 94.5889 130.547 94.5889 132.236ZM122.26 132.222C122.26 134.761 121.718 136.743 120.634 138.169C119.55 139.585 118.036 140.293 116.093 140.293C114.374 140.293 113.002 139.634 111.977 138.315L111.786 140H107.978V117.5H112.211V125.571C113.188 124.429 114.472 123.857 116.063 123.857C117.997 123.857 119.511 124.57 120.604 125.996C121.708 127.412 122.26 129.409 122.26 131.987V132.222ZM118.026 131.914C118.026 130.312 117.772 129.146 117.265 128.413C116.757 127.671 116 127.3 114.994 127.3C113.646 127.3 112.719 127.852 112.211 128.955V135.21C112.729 136.323 113.666 136.88 115.023 136.88C116.391 136.88 117.289 136.206 117.719 134.858C117.924 134.214 118.026 133.232 118.026 131.914ZM129.35 140H125.102V124.15H129.35V140ZM124.853 120.049C124.853 119.414 125.062 118.892 125.482 118.481C125.912 118.071 126.493 117.866 127.226 117.866C127.948 117.866 128.524 118.071 128.954 118.481C129.384 118.892 129.599 119.414 129.599 120.049C129.599 120.693 129.379 121.221 128.939 121.631C128.51 122.041 127.938 122.246 127.226 122.246C126.513 122.246 125.937 122.041 125.497 121.631C125.067 121.221 124.853 120.693 124.853 120.049ZM137.318 140H133.07V117.5H137.318V140ZM148.114 140.293C145.79 140.293 143.896 139.58 142.431 138.154C140.976 136.729 140.248 134.829 140.248 132.456V132.046C140.248 130.454 140.556 129.033 141.171 127.783C141.786 126.523 142.655 125.557 143.778 124.883C144.911 124.199 146.2 123.857 147.646 123.857C149.813 123.857 151.518 124.541 152.758 125.908C154.008 127.275 154.633 129.214 154.633 131.724V133.452H144.54C144.677 134.487 145.087 135.317 145.771 135.942C146.464 136.567 147.338 136.88 148.393 136.88C150.023 136.88 151.298 136.289 152.216 135.107L154.296 137.437C153.661 138.335 152.802 139.038 151.718 139.546C150.634 140.044 149.433 140.293 148.114 140.293ZM147.631 127.285C146.791 127.285 146.107 127.568 145.58 128.135C145.062 128.701 144.73 129.512 144.584 130.566H150.473V130.229C150.453 129.292 150.199 128.569 149.711 128.062C149.223 127.544 148.529 127.285 147.631 127.285ZM169.472 140H165.077V118.672H169.472V140ZM177.177 124.15L177.309 125.981C178.441 124.565 179.96 123.857 181.864 123.857C183.544 123.857 184.794 124.351 185.614 125.337C186.435 126.323 186.854 127.798 186.874 129.761V140H182.641V129.863C182.641 128.965 182.445 128.315 182.055 127.915C181.664 127.505 181.015 127.3 180.106 127.3C178.915 127.3 178.021 127.808 177.426 128.823V140H173.192V124.15H177.177ZM193.993 124.15L194.125 125.981C195.258 124.565 196.776 123.857 198.681 123.857C200.36 123.857 201.61 124.351 202.431 125.337C203.251 126.323 203.671 127.798 203.69 129.761V140H199.457V129.863C199.457 128.965 199.262 128.315 198.871 127.915C198.48 127.505 197.831 127.3 196.923 127.3C195.731 127.3 194.838 127.808 194.242 128.823V140H190.009V124.15H193.993ZM206.254 131.929C206.254 130.356 206.557 128.955 207.162 127.725C207.768 126.494 208.637 125.542 209.77 124.868C210.912 124.194 212.235 123.857 213.739 123.857C215.878 123.857 217.621 124.512 218.969 125.82C220.326 127.129 221.083 128.906 221.239 131.152L221.269 132.236C221.269 134.668 220.59 136.621 219.232 138.096C217.875 139.561 216.054 140.293 213.769 140.293C211.483 140.293 209.657 139.561 208.29 138.096C206.933 136.631 206.254 134.639 206.254 132.119V131.929ZM210.487 132.236C210.487 133.74 210.771 134.893 211.337 135.693C211.903 136.484 212.714 136.88 213.769 136.88C214.794 136.88 215.595 136.489 216.171 135.708C216.747 134.917 217.035 133.657 217.035 131.929C217.035 130.454 216.747 129.312 216.171 128.501C215.595 127.69 214.784 127.285 213.739 127.285C212.704 127.285 211.903 127.69 211.337 128.501C210.771 129.302 210.487 130.547 210.487 132.236ZM229.574 134.829L232.519 124.15H236.942L231.596 140H227.553L222.206 124.15H226.63L229.574 134.829ZM247.768 140C247.572 139.619 247.431 139.146 247.343 138.579C246.317 139.722 244.984 140.293 243.344 140.293C241.791 140.293 240.502 139.844 239.477 138.945C238.461 138.047 237.953 136.914 237.953 135.547C237.953 133.867 238.573 132.578 239.813 131.68C241.063 130.781 242.865 130.327 245.219 130.317H247.167V129.409C247.167 128.677 246.977 128.091 246.596 127.651C246.225 127.212 245.634 126.992 244.823 126.992C244.11 126.992 243.549 127.163 243.139 127.505C242.738 127.847 242.538 128.315 242.538 128.911H238.305C238.305 127.993 238.588 127.144 239.154 126.362C239.721 125.581 240.521 124.971 241.557 124.531C242.592 124.082 243.754 123.857 245.043 123.857C246.996 123.857 248.544 124.351 249.687 125.337C250.839 126.313 251.415 127.69 251.415 129.468V136.338C251.425 137.842 251.635 138.979 252.045 139.751V140H247.768ZM244.267 137.056C244.892 137.056 245.468 136.919 245.995 136.646C246.522 136.362 246.913 135.986 247.167 135.518V132.793H245.585C243.466 132.793 242.338 133.525 242.201 134.99L242.187 135.239C242.187 135.767 242.372 136.201 242.743 136.543C243.114 136.885 243.622 137.056 244.267 137.056ZM259.735 120.254V124.15H262.445V127.256H259.735V135.166C259.735 135.752 259.848 136.172 260.072 136.426C260.297 136.68 260.727 136.807 261.361 136.807C261.83 136.807 262.245 136.772 262.606 136.704V139.912C261.776 140.166 260.922 140.293 260.043 140.293C257.074 140.293 255.561 138.794 255.502 135.796V127.256H253.188V124.15H255.502V120.254H259.735ZM269.271 140H265.023V124.15H269.271V140ZM264.774 120.049C264.774 119.414 264.984 118.892 265.404 118.481C265.834 118.071 266.415 117.866 267.147 117.866C267.87 117.866 268.446 118.071 268.876 118.481C269.306 118.892 269.521 119.414 269.521 120.049C269.521 120.693 269.301 121.221 268.861 121.631C268.432 122.041 267.86 122.246 267.147 122.246C266.435 122.246 265.858 122.041 265.419 121.631C264.989 121.221 264.774 120.693 264.774 120.049ZM272.113 131.929C272.113 130.356 272.416 128.955 273.021 127.725C273.627 126.494 274.496 125.542 275.629 124.868C276.771 124.194 278.095 123.857 279.599 123.857C281.737 123.857 283.48 124.512 284.828 125.82C286.186 127.129 286.942 128.906 287.099 131.152L287.128 132.236C287.128 134.668 286.449 136.621 285.092 138.096C283.734 139.561 281.913 140.293 279.628 140.293C277.343 140.293 275.517 139.561 274.149 138.096C272.792 136.631 272.113 134.639 272.113 132.119V131.929ZM276.347 132.236C276.347 133.74 276.63 134.893 277.196 135.693C277.763 136.484 278.573 136.88 279.628 136.88C280.653 136.88 281.454 136.489 282.03 135.708C282.606 134.917 282.895 133.657 282.895 131.929C282.895 130.454 282.606 129.312 282.03 128.501C281.454 127.69 280.644 127.285 279.599 127.285C278.563 127.285 277.763 127.69 277.196 128.501C276.63 129.302 276.347 130.547 276.347 132.236ZM293.632 124.15L293.764 125.981C294.896 124.565 296.415 123.857 298.319 123.857C299.999 123.857 301.249 124.351 302.069 125.337C302.89 126.323 303.31 127.798 303.329 129.761V140H299.096V129.863C299.096 128.965 298.9 128.315 298.51 127.915C298.119 127.505 297.47 127.3 296.562 127.3C295.37 127.3 294.477 127.808 293.881 128.823V140H289.647V124.15H293.632ZM327.133 131.284H318.695V140H314.301V118.672H328.188V122.231H318.695V127.739H327.133V131.284ZM329.477 131.929C329.477 130.356 329.779 128.955 330.385 127.725C330.99 126.494 331.859 125.542 332.992 124.868C334.135 124.194 335.458 123.857 336.962 123.857C339.101 123.857 340.844 124.512 342.191 125.82C343.549 127.129 344.306 128.906 344.462 131.152L344.491 132.236C344.491 134.668 343.812 136.621 342.455 138.096C341.098 139.561 339.276 140.293 336.991 140.293C334.706 140.293 332.88 139.561 331.513 138.096C330.155 136.631 329.477 134.639 329.477 132.119V131.929ZM333.71 132.236C333.71 133.74 333.993 134.893 334.56 135.693C335.126 136.484 335.937 136.88 336.991 136.88C338.017 136.88 338.817 136.489 339.394 135.708C339.97 134.917 340.258 133.657 340.258 131.929C340.258 130.454 339.97 129.312 339.394 128.501C338.817 127.69 338.007 127.285 336.962 127.285C335.927 127.285 335.126 127.69 334.56 128.501C333.993 129.302 333.71 130.547 333.71 132.236ZM356.005 128.12C355.429 128.042 354.921 128.003 354.481 128.003C352.88 128.003 351.83 128.545 351.332 129.629V140H347.099V124.15H351.098L351.215 126.04C352.064 124.585 353.241 123.857 354.745 123.857C355.214 123.857 355.653 123.921 356.063 124.048L356.005 128.12ZM376.864 134.404C376.864 133.574 376.571 132.939 375.985 132.5C375.399 132.051 374.345 131.582 372.821 131.094C371.298 130.596 370.092 130.107 369.203 129.629C366.781 128.32 365.57 126.558 365.57 124.341C365.57 123.188 365.893 122.163 366.537 121.265C367.191 120.356 368.124 119.648 369.335 119.141C370.556 118.633 371.923 118.379 373.437 118.379C374.96 118.379 376.317 118.657 377.509 119.214C378.7 119.761 379.623 120.537 380.277 121.543C380.941 122.549 381.273 123.691 381.273 124.971H376.879C376.879 123.994 376.571 123.237 375.956 122.7C375.341 122.153 374.477 121.88 373.363 121.88C372.289 121.88 371.454 122.109 370.858 122.568C370.263 123.018 369.965 123.613 369.965 124.355C369.965 125.049 370.312 125.63 371.005 126.099C371.708 126.567 372.738 127.007 374.096 127.417C376.596 128.169 378.417 129.102 379.56 130.215C380.702 131.328 381.273 132.715 381.273 134.375C381.273 136.221 380.575 137.671 379.179 138.726C377.782 139.771 375.902 140.293 373.539 140.293C371.898 140.293 370.404 139.995 369.057 139.399C367.709 138.794 366.679 137.969 365.966 136.924C365.263 135.879 364.911 134.668 364.911 133.291H369.32C369.32 135.645 370.727 136.821 373.539 136.821C374.584 136.821 375.399 136.611 375.985 136.191C376.571 135.762 376.864 135.166 376.864 134.404ZM390.004 118.672L395.482 134.141L400.932 118.672H406.703V140H402.294V134.17L402.733 124.106L396.977 140H393.959L388.217 124.121L388.656 134.17V140H384.262V118.672H390.004ZM423.373 130.757H414.936V136.47H424.838V140H410.541V118.672H424.809V122.231H414.936V127.314H423.373V130.757ZM447.719 130.757H439.281V136.47H449.184V140H434.887V118.672H449.154V122.231H439.281V127.314H447.719V130.757ZM457.782 136.88C458.563 136.88 459.198 136.665 459.687 136.235C460.175 135.806 460.429 135.234 460.448 134.521H464.418C464.408 135.596 464.115 136.582 463.539 137.48C462.963 138.369 462.172 139.062 461.166 139.561C460.17 140.049 459.066 140.293 457.855 140.293C455.59 140.293 453.803 139.575 452.494 138.14C451.186 136.694 450.531 134.702 450.531 132.163V131.885C450.531 129.443 451.181 127.495 452.479 126.04C453.778 124.585 455.561 123.857 457.826 123.857C459.809 123.857 461.396 124.424 462.587 125.557C463.788 126.68 464.398 128.179 464.418 130.054H460.448C460.429 129.233 460.175 128.569 459.687 128.062C459.198 127.544 458.554 127.285 457.753 127.285C456.767 127.285 456.02 127.646 455.512 128.369C455.014 129.082 454.765 130.244 454.765 131.855V132.295C454.765 133.926 455.014 135.098 455.512 135.811C456.01 136.523 456.767 136.88 457.782 136.88ZM466.176 131.929C466.176 130.356 466.479 128.955 467.084 127.725C467.689 126.494 468.559 125.542 469.691 124.868C470.834 124.194 472.157 123.857 473.661 123.857C475.8 123.857 477.543 124.512 478.891 125.82C480.248 127.129 481.005 128.906 481.161 131.152L481.19 132.236C481.19 134.668 480.512 136.621 479.154 138.096C477.797 139.561 475.976 140.293 473.69 140.293C471.405 140.293 469.579 139.561 468.212 138.096C466.854 136.631 466.176 134.639 466.176 132.119V131.929ZM470.409 132.236C470.409 133.74 470.692 134.893 471.259 135.693C471.825 136.484 472.636 136.88 473.69 136.88C474.716 136.88 475.517 136.489 476.093 135.708C476.669 134.917 476.957 133.657 476.957 131.929C476.957 130.454 476.669 129.312 476.093 128.501C475.517 127.69 474.706 127.285 473.661 127.285C472.626 127.285 471.825 127.69 471.259 128.501C470.692 129.302 470.409 130.547 470.409 132.236ZM492.382 135.62C492.382 135.103 492.123 134.697 491.605 134.404C491.098 134.102 490.277 133.833 489.145 133.599C485.375 132.808 483.49 131.206 483.49 128.794C483.49 127.388 484.071 126.216 485.233 125.278C486.405 124.331 487.934 123.857 489.818 123.857C491.83 123.857 493.437 124.331 494.638 125.278C495.849 126.226 496.454 127.456 496.454 128.97H492.221C492.221 128.364 492.025 127.866 491.635 127.476C491.244 127.075 490.634 126.875 489.804 126.875C489.091 126.875 488.539 127.036 488.148 127.358C487.758 127.681 487.562 128.091 487.562 128.589C487.562 129.058 487.782 129.438 488.222 129.731C488.671 130.015 489.423 130.264 490.478 130.479C491.532 130.684 492.421 130.918 493.144 131.182C495.38 132.002 496.498 133.423 496.498 135.444C496.498 136.89 495.878 138.062 494.638 138.96C493.397 139.849 491.796 140.293 489.833 140.293C488.505 140.293 487.323 140.059 486.288 139.59C485.263 139.111 484.457 138.462 483.871 137.642C483.285 136.812 482.992 135.918 482.992 134.961H487.006C487.045 135.713 487.323 136.289 487.841 136.689C488.358 137.09 489.052 137.29 489.921 137.29C490.731 137.29 491.342 137.139 491.752 136.836C492.172 136.523 492.382 136.118 492.382 135.62ZM505.155 134.009L508.085 124.15H512.626L506.254 142.461L505.902 143.296C504.955 145.366 503.393 146.401 501.215 146.401C500.6 146.401 499.975 146.309 499.34 146.123V142.915L499.984 142.93C500.785 142.93 501.381 142.808 501.771 142.563C502.172 142.319 502.484 141.914 502.709 141.348L503.207 140.044L497.655 124.15H502.211L505.155 134.009ZM522.88 135.62C522.88 135.103 522.621 134.697 522.104 134.404C521.596 134.102 520.775 133.833 519.643 133.599C515.873 132.808 513.988 131.206 513.988 128.794C513.988 127.388 514.569 126.216 515.731 125.278C516.903 124.331 518.432 123.857 520.316 123.857C522.328 123.857 523.935 124.331 525.136 125.278C526.347 126.226 526.952 127.456 526.952 128.97H522.719C522.719 128.364 522.523 127.866 522.133 127.476C521.742 127.075 521.132 126.875 520.302 126.875C519.589 126.875 519.037 127.036 518.646 127.358C518.256 127.681 518.061 128.091 518.061 128.589C518.061 129.058 518.28 129.438 518.72 129.731C519.169 130.015 519.921 130.264 520.976 130.479C522.03 130.684 522.919 130.918 523.642 131.182C525.878 132.002 526.996 133.423 526.996 135.444C526.996 136.89 526.376 138.062 525.136 138.96C523.896 139.849 522.294 140.293 520.331 140.293C519.003 140.293 517.821 140.059 516.786 139.59C515.761 139.111 514.955 138.462 514.369 137.642C513.783 136.812 513.49 135.918 513.49 134.961H517.504C517.543 135.713 517.821 136.289 518.339 136.689C518.856 137.09 519.55 137.29 520.419 137.29C521.229 137.29 521.84 137.139 522.25 136.836C522.67 136.523 522.88 136.118 522.88 135.62ZM534.804 120.254V124.15H537.514V127.256H534.804V135.166C534.804 135.752 534.916 136.172 535.141 136.426C535.365 136.68 535.795 136.807 536.43 136.807C536.898 136.807 537.313 136.772 537.675 136.704V139.912C536.845 140.166 535.99 140.293 535.111 140.293C532.143 140.293 530.629 138.794 530.57 135.796V127.256H528.256V124.15H530.57V120.254H534.804ZM547.167 140.293C544.843 140.293 542.948 139.58 541.483 138.154C540.028 136.729 539.301 134.829 539.301 132.456V132.046C539.301 130.454 539.608 129.033 540.224 127.783C540.839 126.523 541.708 125.557 542.831 124.883C543.964 124.199 545.253 123.857 546.698 123.857C548.866 123.857 550.57 124.541 551.811 125.908C553.061 127.275 553.686 129.214 553.686 131.724V133.452H543.593C543.729 134.487 544.14 135.317 544.823 135.942C545.517 136.567 546.391 136.88 547.445 136.88C549.076 136.88 550.351 136.289 551.269 135.107L553.349 137.437C552.714 138.335 551.854 139.038 550.771 139.546C549.687 140.044 548.485 140.293 547.167 140.293ZM546.684 127.285C545.844 127.285 545.16 127.568 544.633 128.135C544.115 128.701 543.783 129.512 543.637 130.566H549.525V130.229C549.506 129.292 549.252 128.569 548.764 128.062C548.275 127.544 547.582 127.285 546.684 127.285ZM560.072 124.15L560.204 125.923C561.327 124.546 562.846 123.857 564.76 123.857C566.801 123.857 568.202 124.663 568.964 126.274C570.077 124.663 571.664 123.857 573.725 123.857C575.443 123.857 576.723 124.36 577.562 125.366C578.402 126.362 578.822 127.866 578.822 129.878V140H574.574V129.893C574.574 128.994 574.398 128.34 574.047 127.93C573.695 127.51 573.075 127.3 572.187 127.3C570.917 127.3 570.038 127.905 569.55 129.116L569.564 140H565.331V129.907C565.331 128.989 565.15 128.325 564.789 127.915C564.428 127.505 563.812 127.3 562.943 127.3C561.742 127.3 560.873 127.798 560.336 128.794V140H556.103V124.15H560.072Z" fill="white"/>
<defs>
<linearGradient id="paint0_linear_640_11014" x1="303.859" y1="30.0594" x2="269.445" y2="98.7817" gradientUnits="userSpaceOnUse">
<stop stop-color="#013838"/>
<stop offset="1" stop-color="#435E5C"/>
</linearGradient>
<linearGradient id="paint1_linear_640_11014" x1="408.904" y1="38.2765" x2="367.34" y2="98.1294" gradientUnits="userSpaceOnUse">
<stop stop-color="#C73A07"/>
<stop offset="1" stop-color="#F69235"/>
</linearGradient>
<linearGradient id="paint2_linear_640_11014" x1="347" y1="0.61377" x2="347" y2="80.0485" gradientUnits="userSpaceOnUse">
<stop stop-color="#013838"/>
<stop offset="1" stop-color="#427C78"/>
</linearGradient>
</defs>
</svg>
