<svg width="500" height="500" viewBox="0 0 500 500" fill="none" xmlns="http://www.w3.org/2000/svg">
<path d="M0 100C0 44.7715 44.7715 0 100 0H400C455.228 0 500 44.7715 500 100V400C500 455.228 455.228 500 400 500H100C44.7715 500 0 455.228 0 400V100Z" fill="url(#paint0_linear_275_682)"/>
<path d="M262.906 333.277C262.906 341.676 261.422 349.039 258.453 355.367C255.484 361.695 251.227 366.578 245.68 370.016C240.172 373.453 233.844 375.172 226.695 375.172C219.625 375.172 213.316 373.473 207.77 370.074C202.223 366.676 197.926 361.832 194.879 355.543C191.832 349.215 190.289 341.949 190.25 333.746V329.527C190.25 321.129 191.754 313.746 194.762 307.379C197.809 300.973 202.086 296.07 207.594 292.672C213.141 289.234 219.469 287.516 226.578 287.516C233.688 287.516 239.996 289.234 245.504 292.672C251.051 296.07 255.328 300.973 258.336 307.379C261.383 313.746 262.906 321.109 262.906 329.469V333.277ZM245.094 329.41C245.094 320.465 243.492 313.668 240.289 309.02C237.086 304.371 232.516 302.047 226.578 302.047C220.68 302.047 216.129 304.352 212.926 308.961C209.723 313.531 208.102 320.25 208.062 329.117V333.277C208.062 341.988 209.664 348.746 212.867 353.551C216.07 358.355 220.68 360.758 226.695 360.758C232.594 360.758 237.125 358.453 240.289 353.844C243.453 349.195 245.055 342.438 245.094 333.57V329.41ZM305.914 352.848L325.25 288.688H344.82L315.113 374H296.773L267.184 288.688H286.695L305.914 352.848ZM404.234 337.027H370.484V359.879H410.094V374H352.906V288.688H409.977V302.926H370.484V323.258H404.234V337.027Z" fill="white"/>
<path d="M54 280L82.6649 321.61V369H54V280Z" fill="url(#paint1_linear_275_682)"/>
<path d="M160.338 310.052L131.673 351.662V369H160.338V310.052Z" fill="url(#paint2_linear_275_682)"/>
<path fill-rule="evenodd" clip-rule="evenodd" d="M99.3499 347.039H114.988L160.338 280H127.261L107.169 309.474L87.2883 280H54L99.3499 347.039Z" fill="url(#paint3_linear_275_682)"/>
<path d="M245.672 185.673C246.486 185.86 247.299 186.009 248.1 186.234C249.616 186.657 251.145 187.068 252.624 187.578C255.41 188.537 257.986 189.932 260.365 191.7C263.767 194.24 266.466 197.378 268.29 201.263C269.486 203.79 270.238 206.455 270.632 209.207C271.076 212.32 271.162 215.445 270.645 218.57C269.979 222.567 268.475 226.228 266.109 229.515C263.422 233.238 259.983 236.127 256.1 238.48C253.499 240.049 250.775 241.369 247.928 242.427C245.216 243.436 242.467 244.283 239.645 244.955C236.995 245.578 234.32 245.839 231.596 245.827C217.051 245.789 202.506 245.814 187.961 245.802C187.666 245.802 187.357 245.777 187.062 245.764C187.037 245.715 187.025 245.665 187 245.615C187.32 245.378 187.629 245.129 187.949 244.893C189.909 243.424 191.832 241.917 193.422 240.012C194.519 238.704 195.111 237.273 195.111 235.492C195.074 206.816 195.074 178.14 195.111 149.452C195.111 147.92 194.63 146.725 193.594 145.666C191.893 143.923 189.884 142.616 187.777 141.445C187.53 141.308 187.296 141.171 187.062 140.897C187.345 140.872 187.641 140.835 187.924 140.835C194.741 140.835 201.569 140.835 208.386 140.835C217.162 140.835 225.926 140.798 234.702 140.885C236.378 140.897 238.079 141.296 239.731 141.657C241.247 141.981 242.738 142.466 244.218 142.952C246.362 143.662 248.396 144.608 250.344 145.778C253.216 147.509 255.73 149.626 257.616 152.44C259.058 154.594 259.995 156.96 260.476 159.512C260.895 161.754 260.858 164.02 260.685 166.274C260.5 168.49 259.958 170.632 259.132 172.699C257.813 176.011 255.742 178.775 253.08 181.091C251.145 182.772 248.988 184.129 246.621 185.1C246.301 185.225 245.993 185.374 245.684 185.524C245.66 185.561 245.672 185.611 245.672 185.673ZM212.145 213.241C212.145 219.865 212.145 226.477 212.145 233.101C212.145 233.886 212.145 233.898 212.922 233.898C220.046 233.898 227.183 233.898 234.307 233.898C234.751 233.898 235.232 233.911 235.651 233.774C237.241 233.3 238.856 232.877 240.372 232.23C243.096 231.072 245.623 229.553 247.891 227.61C252.057 224.049 254.608 219.641 255.028 214.088C255.274 210.8 254.769 207.65 253.277 204.687C251.736 201.624 249.468 199.221 246.683 197.291C244.439 195.747 242.011 194.564 239.447 193.667C237.056 192.833 234.616 192.497 232.076 192.522C225.728 192.584 219.381 192.546 213.033 192.546C212.157 192.546 212.157 192.546 212.157 193.443C212.145 200.055 212.145 206.654 212.145 213.241ZM212.145 167.531C212.145 172.761 212.157 177.991 212.133 183.22C212.133 183.731 212.281 183.893 212.798 183.893C219.023 183.88 225.248 183.88 231.472 183.88C231.842 183.88 232.224 183.88 232.569 183.781C234.258 183.295 235.811 182.511 237.253 181.514C239.201 180.17 240.89 178.551 242.233 176.584C243.453 174.791 244.304 172.823 244.698 170.682C245.154 168.229 245.006 165.776 244.501 163.335C243.688 159.475 241.765 156.325 238.597 153.984C236.132 152.166 233.445 151.145 230.326 151.182C224.533 151.27 218.74 151.207 212.946 151.207C212.17 151.207 212.17 151.207 212.17 151.979C212.145 157.159 212.145 162.339 212.145 167.531Z" fill="white"/>
<path d="M363.184 218.317C363.209 217.957 363.258 217.598 363.258 217.225C363.258 194.605 363.258 171.972 363.271 149.352C363.271 148.012 362.825 146.907 361.922 145.939C360.115 144.004 357.962 142.54 355.734 141.162C355.672 141.125 355.61 141.075 355.524 141.026C356.093 140.765 383.505 140.765 384 141.001C382.713 141.671 381.414 142.304 380.151 143.011C378.654 143.842 377.255 144.81 376.067 146.076C375.288 146.907 374.867 147.826 374.867 149.017C374.879 182.606 374.879 216.183 374.879 249.772C374.879 250.07 374.854 250.38 374.83 250.827C374.199 250.442 373.666 250.157 373.171 249.822C369.694 247.489 366.439 244.871 363.357 242.042C359.274 238.295 355.598 234.175 352.145 229.857C348.668 225.514 345.19 221.171 341.75 216.803C338.977 213.292 336.242 209.756 333.495 206.219C330.76 202.683 328.037 199.134 325.315 195.585C320.884 189.791 316.454 183.996 312.036 178.189C308.929 174.106 305.835 170.012 302.729 165.929C302.605 165.768 302.469 165.632 302.222 165.359C302.197 165.718 302.16 165.929 302.16 166.14C302.16 189.406 302.16 212.672 302.148 235.937C302.148 237.302 302.779 238.382 303.558 239.411C305.167 241.533 307.222 243.196 309.301 244.822C309.486 244.97 309.647 245.132 309.771 245.417C300.576 245.417 291.368 245.417 282 245.417C282.297 245.144 282.47 244.97 282.668 244.809C284.698 243.184 286.653 241.484 288.25 239.399C289.203 238.158 289.648 236.793 289.648 235.205C289.636 206.691 289.623 178.164 289.661 149.65C289.661 147.925 289.079 146.572 287.891 145.394C286.232 143.743 284.339 142.391 282.347 141.187C282.285 141.15 282.223 141.1 282.025 140.964C282.396 140.914 282.631 140.864 282.854 140.864C290.75 140.864 298.658 140.864 306.553 140.852C306.999 140.852 307.271 140.989 307.519 141.361C310.489 145.84 313.471 150.32 316.466 154.774C319.387 159.117 322.307 163.46 325.29 167.753C328.582 172.493 331.886 177.221 335.302 181.862C339.138 187.073 343.123 192.173 347.046 197.322C350.784 202.249 354.509 207.175 358.246 212.101C359.719 214.036 361.167 215.985 362.64 217.933C362.763 218.094 362.887 218.23 363.023 218.379C363.06 218.355 363.122 218.33 363.184 218.317Z" fill="white"/>
<path d="M401.086 141.827C411.383 141.827 421.667 141.827 431.963 141.827C431.975 141.852 431.988 141.889 432 141.914C431.089 142.445 430.165 142.939 429.29 143.496C427.578 144.583 425.867 145.695 424.66 147.389C424.167 148.068 423.847 148.822 423.847 149.724C423.859 178.619 423.859 207.514 423.847 236.409C423.847 237.768 424.499 238.831 425.288 239.832C426.396 241.241 427.726 242.428 429.155 243.503C429.968 244.121 430.805 244.714 431.631 245.32C431.741 245.394 431.84 245.493 431.951 245.592C431.557 245.851 401.85 245.925 401.037 245.666C401.16 245.53 401.246 245.406 401.345 245.32C402.823 244.047 404.35 242.848 405.754 241.501C406.85 240.463 407.848 239.301 408.316 237.805C408.451 237.361 408.538 236.879 408.538 236.421C408.562 233.183 408.55 229.958 408.55 226.72C408.55 201.248 408.538 175.764 408.574 150.293C408.574 148.674 408.008 147.426 406.936 146.326C405.372 144.707 403.5 143.483 401.591 142.321C401.394 142.198 401.197 142.05 401 141.914C401.049 141.901 401.062 141.864 401.086 141.827Z" fill="white"/>
<path d="M88.7101 140.186C88.4007 140.965 88.1038 141.671 87.8439 142.364C87.0521 144.43 86.5942 146.571 86.2602 148.748C85.7405 152.2 85.7652 155.653 86.1488 159.105C86.5076 162.334 87.2253 165.514 88.2275 168.607C89.5143 172.604 91.1847 176.427 93.1768 180.127C96.1835 185.695 99.6728 190.941 103.447 195.989C104.709 197.684 106.033 199.342 107.332 201.025C107.74 201.545 107.715 201.607 107.208 202.003C103.892 204.638 100.576 207.274 97.26 209.922C96.6908 210.379 96.5918 210.367 96.134 209.786C92.8922 205.739 89.6628 201.693 86.421 197.635C82.6472 192.908 78.8857 188.169 75.1119 183.443C71.5607 178.988 67.9725 174.559 64.4214 170.105C61.0558 165.898 57.7151 161.666 54.3867 157.434C54.1516 157.137 54.0155 156.692 54.0155 156.308C53.9907 151.173 54.0031 146.039 54.0031 140.904C54.0031 140.124 54.0278 140.099 54.795 140.099C65.869 140.099 76.9431 140.099 88.0172 140.099C88.2275 140.112 88.4379 140.161 88.7101 140.186Z" fill="white"/>
<path d="M159.881 192.562C159.881 198.885 159.868 205.22 159.893 211.543C159.893 212.161 159.745 212.533 159.151 212.854C156.218 214.426 153.1 215.106 149.797 214.76C147.718 214.537 145.763 213.844 143.895 212.891C140.306 211.048 137.238 208.511 134.379 205.715C132.647 204.02 130.903 202.312 129.245 200.543C126.782 197.907 124.741 194.975 123.392 191.622C121.882 187.836 121.202 183.876 121.573 179.83C121.895 176.316 123.355 173.186 125.557 170.426C127.71 167.729 130.383 165.725 133.649 164.586C136.508 163.584 139.453 163.299 142.472 163.794C145.887 164.364 148.992 165.712 151.999 167.358C154.634 168.806 157.109 170.501 159.46 172.369C159.819 172.654 159.868 172.988 159.868 173.396C159.881 179.781 159.881 186.178 159.881 192.562Z" fill="white"/>
<path d="M115.052 183.084C114.434 182.305 113.852 181.661 113.382 180.956C111.712 178.444 110.004 175.945 108.433 173.371C106.527 170.253 104.919 166.974 103.57 163.559C102.333 160.441 101.491 157.236 100.972 153.933C100.588 151.495 100.477 149.045 100.687 146.595C100.86 144.603 101.256 142.648 102.11 140.817C102.37 140.248 102.716 139.988 103.384 140C112.454 140.025 121.524 140.013 130.593 140.038C140.034 140.05 149.475 140.087 158.916 140.124C159.868 140.124 159.868 140.124 159.868 141.077C159.868 145.408 159.868 149.738 159.868 154.069C159.868 154.848 159.868 154.836 159.175 154.551C156.602 153.475 153.941 152.757 151.182 152.312C148.398 151.866 145.602 151.829 142.806 152.126C140.739 152.337 138.722 152.819 136.743 153.487C133.093 154.725 129.838 156.618 126.844 159.006C123.664 161.542 121.041 164.524 119.234 168.199C118.146 170.414 117.292 172.715 116.624 175.103C115.931 177.566 115.547 180.09 115.201 182.614C115.188 182.701 115.139 182.812 115.052 183.084Z" fill="white"/>
<path d="M124.011 245.21C126.412 243.131 128.812 241.04 131.212 238.962C131.2 238.9 131.2 238.85 131.188 238.788C130.99 238.788 130.779 238.764 130.594 238.788C128.54 239.098 126.597 238.64 124.679 237.947C121.772 236.895 119.161 235.324 116.686 233.505C114.088 231.587 111.861 229.261 109.745 226.848C107.047 223.767 104.486 220.575 101.863 217.432C101.776 217.321 101.702 217.197 101.591 217.036C101.863 216.776 102.123 216.504 102.395 216.269C105.674 213.559 108.965 210.85 112.257 208.152C112.838 207.67 112.863 207.682 113.321 208.251C116.34 211.914 119.656 215.292 123.368 218.261C126.065 220.426 128.923 222.381 132.103 223.767C133.749 224.485 135.506 224.992 137.238 225.487C139.589 226.143 142.014 226.39 144.452 226.316C147.595 226.217 150.601 225.524 153.422 224.101C155.65 222.988 157.617 221.515 159.263 219.635C159.386 219.486 159.547 219.387 159.819 219.152C159.844 219.498 159.869 219.696 159.869 219.882C159.869 228.147 159.869 236.413 159.869 244.69C159.869 245.396 159.856 245.408 159.139 245.408C147.656 245.408 136.174 245.408 124.679 245.408C124.481 245.408 124.283 245.383 124.073 245.383C124.061 245.321 124.036 245.26 124.011 245.21Z" fill="white"/>
<path d="M54.0521 178.729C54.3738 179.063 54.6336 179.286 54.8316 179.545C57.3805 182.75 59.9046 185.967 62.4535 189.172C66.8089 194.666 71.1643 200.159 75.5197 205.665C78.8728 209.909 82.226 214.153 85.5915 218.385C85.8514 218.719 85.9256 218.942 85.5544 219.251C81.4341 222.654 77.3138 226.081 73.1935 229.496C69.8527 232.268 66.512 235.039 63.1712 237.811C60.3748 240.137 57.5661 242.463 54.7574 244.777C54.5594 244.938 54.3243 245.062 54.0273 245.26C54.0521 223.062 54.0521 200.988 54.0521 178.729Z" fill="white"/>
<path d="M107.455 245.371C93.9437 245.371 80.5682 245.371 67.0938 245.371C67.2299 245.186 67.2917 245.037 67.4031 244.95C70.0015 242.773 72.6246 240.607 75.223 238.43C77.6358 236.413 80.0362 234.371 82.449 232.354C85.0473 230.177 87.6457 227.987 90.2565 225.809C90.9246 225.252 90.937 225.277 91.4938 225.958C94.2902 229.335 97.0865 232.713 99.8705 236.091C102.271 238.999 104.659 241.894 107.059 244.802C107.183 244.938 107.27 245.087 107.455 245.371Z" fill="white"/>
<defs>
<linearGradient id="paint0_linear_275_682" x1="500" y1="0" x2="0" y2="500" gradientUnits="userSpaceOnUse">
<stop stop-color="#166974"/>
<stop offset="1" stop-color="#56BBAF"/>
</linearGradient>
<linearGradient id="paint1_linear_275_682" x1="70.7597" y1="304.851" x2="41.7166" y2="362.849" gradientUnits="userSpaceOnUse">
<stop stop-color="#013838"/>
<stop offset="1" stop-color="#435E5C"/>
</linearGradient>
<linearGradient id="paint2_linear_275_682" x1="159.413" y1="311.786" x2="124.335" y2="362.299" gradientUnits="userSpaceOnUse">
<stop stop-color="#C73A07"/>
<stop offset="1" stop-color="#F69235"/>
</linearGradient>
<linearGradient id="paint3_linear_275_682" x1="107.169" y1="280" x2="107.169" y2="347.039" gradientUnits="userSpaceOnUse">
<stop stop-color="#013838"/>
<stop offset="1" stop-color="#427C78"/>
</linearGradient>
</defs>
</svg>
