<svg width="2094" height="614" viewBox="0 0 2094 614" fill="none" xmlns="http://www.w3.org/2000/svg">
<path d="M1061.59 252.965C1066.1 254 1070.61 254.827 1075.04 256.069C1083.44 258.414 1091.91 260.689 1100.1 263.517C1115.53 268.827 1129.8 276.551 1142.97 286.344C1161.81 300.413 1176.76 317.792 1186.87 339.309C1193.49 353.308 1197.65 368.067 1199.84 383.308C1202.3 400.549 1202.77 417.859 1199.91 435.169C1196.22 457.306 1187.89 477.582 1174.78 495.788C1159.9 516.409 1140.85 532.408 1119.35 545.443C1104.95 554.132 1089.86 561.442 1074.09 567.304C1059.07 572.89 1043.84 577.58 1028.21 581.304C1013.53 584.752 998.718 586.2 983.631 586.131C903.073 585.925 822.516 586.063 741.958 585.994C740.32 585.994 738.613 585.856 736.975 585.787C736.838 585.511 736.77 585.235 736.633 584.959C738.408 583.649 740.115 582.269 741.89 580.959C752.745 572.821 763.395 564.477 772.201 553.925C778.277 546.684 781.554 538.753 781.554 528.891C781.35 370.067 781.35 211.242 781.554 52.3486C781.554 43.866 778.892 37.2454 773.157 31.3835C763.736 21.7285 752.608 14.4872 740.934 8.00461C739.569 7.24601 738.272 6.48741 736.975 4.97019C738.545 4.83227 740.183 4.62537 741.753 4.62537C779.506 4.62537 817.327 4.62537 855.08 4.62537C903.688 4.62537 952.227 4.41848 1000.83 4.90123C1010.12 4.97019 1019.54 7.17705 1028.69 9.17701C1037.09 10.9701 1045.35 13.6597 1053.54 16.3493C1065.42 20.2802 1076.68 25.5215 1087.47 32.0042C1103.37 41.5902 1117.3 53.3141 1127.75 68.9C1135.73 80.8308 1140.92 93.934 1143.59 108.072C1145.91 120.485 1145.7 133.037 1144.75 145.519C1143.72 157.795 1140.72 169.657 1136.14 181.105C1128.84 199.449 1117.37 214.759 1102.62 227.587C1091.91 236.897 1079.96 244.414 1066.85 249.793C1065.08 250.483 1063.37 251.31 1061.66 252.138C1061.53 252.345 1061.59 252.621 1061.59 252.965ZM875.902 405.652C875.902 442.341 875.902 478.961 875.902 515.65C875.902 519.995 875.902 520.064 880.203 520.064C919.663 520.064 959.191 520.064 998.65 520.064C1001.11 520.064 1003.77 520.133 1006.09 519.374C1014.9 516.754 1023.84 514.409 1032.24 510.823C1047.33 504.409 1061.32 495.995 1073.88 485.237C1096.96 465.513 1111.09 441.1 1113.41 410.342C1114.78 392.135 1111.98 374.687 1103.72 358.274C1095.18 341.309 1082.62 327.999 1067.19 317.309C1054.77 308.758 1041.32 302.206 1027.12 297.24C1013.87 292.62 1000.36 290.758 986.293 290.896C951.135 291.241 915.976 291.034 880.818 291.034C875.97 291.034 875.971 291.034 875.971 295.999C875.902 332.619 875.902 369.17 875.902 405.652ZM875.902 152.485C875.902 181.45 875.97 210.415 875.834 239.38C875.834 242.207 876.653 243.104 879.52 243.104C913.996 243.035 948.472 243.035 982.948 243.035C984.996 243.035 987.113 243.035 989.024 242.483C998.377 239.793 1006.98 235.449 1014.97 229.931C1025.75 222.483 1035.11 213.518 1042.55 202.622C1049.31 192.691 1054.02 181.794 1056.2 169.933C1058.73 156.347 1057.91 142.761 1055.11 129.244C1050.6 107.865 1039.95 90.4168 1022.41 77.4516C1008.75 67.3828 993.871 61.7277 976.599 61.9346C944.513 62.4174 912.426 62.0725 880.34 62.0725C876.039 62.0725 876.039 62.0726 876.039 66.3483C875.902 95.0374 875.902 123.727 875.902 152.485Z" fill="white"/>
<path d="M1712.45 433.768C1712.58 431.775 1712.86 429.782 1712.86 427.72C1712.86 302.435 1712.86 177.081 1712.93 51.7958C1712.93 44.3736 1710.46 38.2571 1705.45 32.8965C1695.45 22.1755 1683.52 14.066 1671.18 6.4375C1670.84 6.23133 1670.5 5.95644 1670.02 5.68154C1673.17 4.23832 1824.99 4.23832 1827.74 5.54409C1820.61 9.25523 1813.41 12.7602 1806.42 16.6775C1798.13 21.2821 1790.38 26.6426 1783.8 33.6525C1779.48 38.2571 1777.15 43.3427 1777.15 49.9403C1777.22 235.978 1777.22 421.947 1777.22 607.985C1777.22 609.635 1777.08 611.353 1776.95 613.827C1773.45 611.696 1770.5 610.116 1767.76 608.26C1748.5 595.34 1730.47 580.839 1713.41 565.17C1690.79 544.415 1670.43 521.598 1651.31 497.682C1632.04 473.628 1612.78 449.575 1593.73 425.384C1578.37 405.935 1563.23 386.348 1548.01 366.761C1532.86 347.175 1517.78 327.52 1502.7 307.864C1478.16 275.77 1453.63 243.675 1429.16 211.512C1411.95 188.902 1394.81 166.223 1377.61 143.612C1376.92 142.719 1376.17 141.963 1374.8 140.451C1374.66 142.444 1374.46 143.612 1374.46 144.78C1374.46 273.639 1374.46 402.498 1374.39 531.357C1374.39 538.917 1377.88 544.896 1382.2 550.6C1391.11 562.352 1402.49 571.561 1414.01 580.564C1415.04 581.389 1415.93 582.282 1416.61 583.863C1365.68 583.863 1314.69 583.863 1262.8 583.863C1264.44 582.351 1265.4 581.389 1266.5 580.495C1277.74 571.492 1288.57 562.077 1297.41 550.531C1302.69 543.659 1305.16 536.099 1305.16 527.302C1305.09 369.373 1305.02 211.375 1305.23 53.4452C1305.23 43.8925 1302.01 36.4015 1295.43 29.8727C1286.24 20.7323 1275.75 13.2413 1264.72 6.57496C1264.38 6.36879 1264.03 6.09389 1262.94 5.33791C1264.99 5.06302 1266.3 4.78811 1267.53 4.78811C1311.26 4.78811 1355.06 4.78811 1398.79 4.71939C1401.26 4.71939 1402.77 5.47536 1404.14 7.5371C1420.59 32.3467 1437.11 57.1564 1453.69 81.8286C1469.87 105.882 1486.05 129.936 1502.57 153.715C1520.8 179.968 1539.1 206.152 1558.02 231.855C1579.27 260.719 1601.34 288.965 1623.07 317.486C1643.77 344.77 1664.4 372.053 1685.1 399.337C1693.25 410.058 1701.27 420.848 1709.43 431.638C1710.12 432.531 1710.8 433.287 1711.56 434.112C1711.76 433.974 1712.1 433.837 1712.45 433.768Z" fill="white"/>
<path d="M1922.37 10.1199C1979.4 10.1199 2036.36 10.1199 2093.38 10.1199C2093.45 10.2568 2093.52 10.4621 2093.59 10.599C2088.54 13.5424 2083.43 16.2804 2078.58 19.3607C2069.1 25.3843 2059.62 31.5448 2052.93 40.9225C2050.2 44.6873 2048.43 48.8627 2048.43 53.8596C2048.5 213.896 2048.5 373.933 2048.43 533.97C2048.43 541.5 2052.05 547.386 2056.41 552.931C2062.55 560.734 2069.92 567.305 2077.83 573.261C2082.33 576.683 2086.97 579.969 2091.54 583.323C2092.16 583.734 2092.7 584.281 2093.32 584.829C2091.13 586.266 1926.6 586.677 1922.1 585.239C1922.78 584.487 1923.26 583.802 1923.8 583.323C1931.99 576.272 1940.45 569.633 1948.22 562.172C1954.29 556.422 1959.82 549.987 1962.41 541.705C1963.16 539.241 1963.64 536.571 1963.64 534.039C1963.78 516.105 1963.71 498.239 1963.71 480.305C1963.71 339.229 1963.64 198.084 1963.84 57.0083C1963.84 48.0413 1960.71 41.1279 1954.77 35.0358C1946.11 26.0688 1935.74 19.2922 1925.17 12.8579C1924.08 12.1734 1922.98 11.352 1921.89 10.599C1922.17 10.5306 1922.23 10.3252 1922.37 10.1199Z" fill="white"/>
<path d="M192.245 1.03C190.532 5.34742 188.887 9.25365 187.448 13.0914C183.062 24.5359 180.526 36.3917 178.676 48.4531C175.798 67.5731 175.935 86.6931 178.059 105.813C180.047 123.7 184.021 141.312 189.572 158.444C196.7 180.58 205.951 201.756 216.985 222.246C233.637 253.085 252.963 282.142 273.865 310.102C280.855 319.491 288.188 328.674 295.383 337.994C297.645 340.872 297.508 341.215 294.698 343.408C276.332 358.005 257.966 372.602 239.6 387.268C236.447 389.803 235.899 389.735 233.363 386.514C215.408 364.104 197.522 341.695 179.567 319.217C158.665 293.038 137.832 266.791 116.93 240.612C97.2618 215.941 77.388 191.408 57.7198 166.737C39.0795 143.436 20.5763 119.999 2.14158 96.5615C0.8395 94.9167 0.0856652 92.4496 0.0856652 90.3252C-0.0513957 61.885 0.0171305 33.4449 0.0171305 5.00477C0.0171305 0.687354 0.154192 0.550293 4.40308 0.550293C65.7378 0.550293 127.073 0.550293 188.407 0.550293C189.572 0.618823 190.737 0.892943 192.245 1.03Z" fill="white"/>
<path d="M586.43 291.119C586.43 326.138 586.362 361.226 586.499 396.245C586.499 399.671 585.677 401.727 582.387 403.509C566.145 412.212 548.876 415.982 530.578 414.063C519.065 412.829 508.237 408.992 497.889 403.715C478.015 393.504 461.02 379.455 445.189 363.967C435.595 354.578 425.932 345.121 416.749 335.321C403.111 320.724 391.804 304.483 384.334 285.911C375.973 264.941 372.204 243.011 374.26 220.601C376.042 201.139 384.129 183.8 396.327 168.518C408.251 153.579 423.054 142.477 441.146 136.172C456.976 130.621 473.287 129.045 490.008 131.786C508.923 134.938 526.124 142.408 542.777 151.523C557.374 159.541 571.08 168.929 584.1 179.277C586.088 180.854 586.362 182.704 586.362 184.966C586.43 220.327 586.43 255.757 586.43 291.119Z" fill="white"/>
<path d="M338.147 238.625C334.721 234.308 331.5 230.744 328.895 226.838C319.644 212.926 310.187 199.083 301.483 184.829C290.93 167.559 282.021 149.399 274.551 130.484C267.698 113.215 263.038 95.4652 260.159 77.1676C258.035 63.6671 257.418 50.0981 258.583 36.5291C259.543 25.4957 261.736 14.6678 266.464 4.52534C267.903 1.37294 269.822 -0.0661966 273.523 0.00233387C323.756 0.139395 373.989 0.0708664 424.221 0.207927C476.51 0.276458 528.799 0.482047 581.087 0.687638C586.364 0.687638 586.364 0.687636 586.364 5.96448C586.364 29.9501 586.364 53.9358 586.364 77.9214C586.364 82.2389 586.364 82.1703 582.527 80.5941C568.272 74.632 553.538 70.6572 538.256 68.1901C522.837 65.723 507.349 65.5174 491.861 67.1622C480.416 68.3272 469.246 70.9999 458.281 74.7005C438.064 81.5536 420.041 92.0387 403.457 105.265C385.844 119.314 371.316 135.83 361.31 156.183C355.28 168.45 350.551 181.197 346.85 194.423C343.013 208.061 340.888 222.041 338.969 236.021C338.901 236.501 338.627 237.118 338.147 238.625Z" fill="white"/>
<path d="M387.764 582.716C401.059 571.203 414.353 559.621 427.648 548.108C427.58 547.765 427.58 547.491 427.511 547.149C426.415 547.149 425.25 547.012 424.222 547.149C412.846 548.862 402.086 546.326 391.464 542.489C375.36 536.664 360.9 527.96 347.194 517.886C332.802 507.264 320.467 494.38 308.748 481.017C293.808 463.953 279.623 446.272 265.094 428.865C264.614 428.248 264.203 427.563 263.586 426.672C265.094 425.233 266.533 423.725 268.041 422.423C286.201 407.415 304.431 392.407 322.66 377.467C325.881 374.795 326.018 374.863 328.553 378.016C345.275 398.301 363.641 417.009 384.2 433.457C399.14 445.45 414.97 456.277 432.583 463.953C441.697 467.928 451.428 470.737 461.023 473.478C474.043 477.111 487.475 478.481 500.976 478.07C518.383 477.522 535.036 473.684 550.66 465.803C562.996 459.635 573.892 451.48 583.007 441.064C583.692 440.241 584.583 439.693 586.091 438.391C586.228 440.31 586.365 441.406 586.365 442.434C586.365 488.213 586.365 533.991 586.365 579.838C586.365 583.744 586.296 583.812 582.322 583.812C518.725 583.812 455.129 583.812 391.464 583.812C390.368 583.812 389.271 583.675 388.106 583.675C388.038 583.333 387.901 582.99 387.764 582.716Z" fill="white"/>
<path d="M0.291356 214.503C2.07315 216.353 3.51229 217.587 4.60878 219.026C18.726 236.775 32.7063 254.593 46.8235 272.343C70.9463 302.77 95.069 333.198 119.192 363.694C137.763 387.2 156.335 410.706 174.975 434.143C176.415 435.993 176.826 437.227 174.77 438.94C151.949 457.786 129.129 476.769 106.308 495.683C87.8047 511.034 69.3015 526.385 50.7983 541.736C35.3104 554.62 19.754 567.503 4.19759 580.318C3.10111 581.209 1.79903 581.895 0.154297 582.991C0.291358 460.048 0.291356 337.789 0.291356 214.503Z" fill="white"/>
<path d="M296.067 583.608C221.232 583.608 147.151 583.608 72.521 583.608C73.2748 582.58 73.6175 581.758 74.2343 581.278C88.6257 569.217 103.154 557.224 117.546 545.163C130.909 533.992 144.204 522.685 157.567 511.514C171.959 499.453 186.35 487.323 200.81 475.262C204.511 472.178 204.579 472.315 207.663 476.084C223.151 494.793 238.639 513.502 254.058 532.21C267.353 548.315 280.579 564.351 293.874 580.456C294.56 581.21 295.039 582.032 296.067 583.608Z" fill="white"/>
</svg>
